# Blender v2.74 (sub 0) OBJ File: 'Etapkoncowy2 - Kopia.blend'
# www.blender.org
mtllib wieza.mtl
o Cube.001
v 0.312105 2.211844 -2.405125
v 0.312105 2.211844 -1.405265
v 0.408583 2.904171 -1.505265
v 0.408583 2.904171 -2.305125
v 0.496604 2.904171 -2.597285
v 0.496604 2.201143 -1.196393
v 0.496604 2.904171 -1.196395
v 0.496604 2.201143 -2.597283
v 4.866484 2.193983 -1.894545
v 4.626550 2.193983 -1.478846
v 4.626550 2.193980 -2.319478
v 4.111775 2.904171 -1.196395
v 4.111775 2.193980 -2.597283
v 4.111775 2.904171 -2.597285
v 4.111775 2.193980 -1.196393
v 3.516961 2.904171 -1.066018
v 3.516961 2.193980 -2.715822
v 3.516961 2.904171 -2.715824
v 3.516961 2.193980 -1.066016
v 2.909571 2.904171 -2.820792
v 2.909571 2.193980 -0.968602
v 2.909571 2.904171 -0.968604
v 2.909571 2.193980 -2.820790
v 0.103741 2.494795 -2.505125
v 0.103741 2.494795 -1.305265
v 0.496604 2.494795 -1.009855
v 0.496604 2.494795 -2.809115
v 4.626550 2.442988 -1.292308
v 4.626550 2.442988 -2.531310
v 4.111775 2.442988 -2.809115
v 4.111775 2.442988 -1.009855
v 3.516961 2.442988 -2.927654
v 3.516961 2.442988 -0.879478
v 2.909571 2.442988 -0.782064
v 2.909571 2.442988 -3.032623
v 0.152486 2.425528 -1.305265
v 0.496604 2.425528 -1.009855
v 0.496604 2.425528 -2.809115
v 4.626550 2.357592 -1.292308
v 4.626550 2.357592 -2.531310
v 4.111775 2.357592 -2.809115
v 4.111775 2.357592 -1.009855
v 3.516961 2.357592 -2.927654
v 3.516961 2.357592 -0.879478
v 2.909571 2.357592 -0.782064
v 2.909571 2.357592 -3.032623
v 0.152486 2.425528 -2.505125
v 0.212179 2.726698 -2.382089
v 0.212179 2.726698 -1.428301
v 0.496604 2.726698 -1.124611
v 0.496604 2.726698 -2.678802
v 4.626550 2.904171 -1.899163
v 4.111775 2.726698 -2.678802
v 4.111775 2.726698 -1.124611
v 3.516961 2.726698 -2.797340
v 3.516961 2.726698 -0.994233
v 2.909571 2.726698 -0.896819
v 2.909571 2.726698 -2.902309
vn -0.670400 0.742000 0.000000
vn -0.580700 -0.658100 0.479300
vn 0.000000 1.000000 0.000000
vn -0.617600 0.764200 -0.186100
vn 0.313300 -0.751600 -0.580500
vn 0.120900 -0.785600 -0.606800
vn 0.340200 -0.706900 0.620100
vn 0.440300 0.374800 -0.815900
vn 0.105100 -0.787000 -0.607900
vn 0.143000 -0.744100 0.652600
vn 0.105200 -0.747600 0.655700
vn 0.147100 0.370900 0.917000
vn 0.199100 0.367500 0.908500
vn 0.155100 0.412300 -0.897700
vn 0.178200 0.410700 -0.894200
vn 0.803300 -0.385900 -0.453600
vn 0.636900 0.613800 0.466500
vn -0.562100 -0.395500 -0.726400
vn -0.596800 0.575600 0.559000
vn -0.817800 -0.575500 0.000000
vn -0.801200 -0.598500 0.000000
vn -0.562500 -0.655800 -0.503500
vn 0.811100 -0.350700 0.468100
vn 0.158400 0.000000 0.987400
vn 0.214100 -0.000000 0.976800
vn 0.170300 -0.000000 -0.985400
vn 0.481000 0.000000 0.876700
vn 0.195400 -0.000000 -0.980700
vn 0.474900 0.000000 -0.880000
vn -0.553500 -0.389500 0.736100
vn -0.620800 0.763700 0.176900
vn -0.590100 0.576000 -0.565700
vn -0.905900 0.423600 0.000000
vn -0.087200 0.373500 0.923500
vn -0.079200 0.373800 0.924100
vn -0.094000 0.000000 0.995600
vn -0.083100 -0.749200 0.657100
vn -0.083900 0.415900 -0.905500
vn -0.080500 0.488300 -0.869000
vn -0.092200 -0.000000 -0.995700
vn -0.078700 -0.789000 -0.609400
vn 0.000000 -1.000000 0.000000
vn -0.550900 -0.533500 0.641800
vn -0.688000 0.302900 -0.659500
vn 0.340200 -0.707000 0.620100
vn 0.624400 0.631000 -0.460400
vn 1.000000 0.000000 0.000000
vn 0.453400 0.334200 0.826300
vn -0.662100 -0.000000 -0.749500
vn -0.558900 0.367800 0.743200
vn -0.540500 -0.577600 -0.611800
vn -0.651400 0.000000 0.758800
vn -0.703500 0.266500 0.658900
vn -0.559200 0.406100 -0.722700
vn -0.084300 0.441900 0.893100
vn -0.074300 -0.637500 0.766900
vn -0.075000 0.416200 -0.906200
vn -0.069200 -0.684800 -0.725400
vn -0.057900 -0.998300 0.000000
vn -0.003000 -1.000000 0.000000
usemtl Material
s off
f 3//1 4//1 48//1
f 36//2 2//2 6//2
f 5//3 4//3 3//3
f 48//4 4//4 5//4
f 40//5 11//5 13//5
f 41//6 13//6 17//6
f 39//7 42//7 15//7
f 53//8 14//8 29//8
f 43//9 17//9 23//9
f 42//10 44//10 19//10
f 12//3 14//3 18//3
f 18//3 20//3 22//3
f 44//11 45//11 21//11
f 57//12 34//12 33//12
f 56//13 33//13 31//13
f 58//14 55//14 32//14
f 55//15 53//15 30//15
f 29//16 9//16 11//16
f 28//17 52//17 12//17
f 47//18 24//18 27//18
f 50//19 49//19 25//19
f 25//20 24//20 47//20
f 2//21 36//21 47//21
f 8//22 1//22 47//22
f 10//23 9//23 28//23
f 34//24 45//24 44//24
f 33//25 44//25 42//25
f 32//26 43//26 46//26
f 31//27 42//27 39//27
f 30//28 41//28 43//28
f 29//29 40//29 41//29
f 26//30 25//30 36//30
f 7//31 3//31 49//31
f 52//3 14//3 12//3
f 18//15 14//15 53//15
f 20//14 18//14 55//14
f 16//13 56//13 54//13
f 22//12 57//12 56//12
f 24//32 48//32 51//32
f 49//33 48//33 24//33
f 50//34 57//34 22//34
f 26//35 34//35 57//35
f 37//36 45//36 34//36
f 21//37 45//37 37//37
f 51//38 5//38 20//38
f 27//39 51//39 58//39
f 38//40 27//40 35//40
f 38//41 46//41 23//41
f 7//3 22//3 20//3
f 17//42 15//42 19//42
f 49//1 3//1 48//1
f 37//43 36//43 6//43
f 7//3 5//3 3//3
f 51//44 48//44 5//44
f 41//5 40//5 13//5
f 43//6 41//6 17//6
f 10//45 39//45 15//45
f 29//8 30//8 53//8
f 14//46 52//46 29//46
f 46//9 43//9 23//9
f 15//10 42//10 19//10
f 16//3 12//3 18//3
f 16//3 18//3 22//3
f 19//11 44//11 21//11
f 56//12 57//12 33//12
f 54//13 56//13 31//13
f 35//14 58//14 32//14
f 32//15 55//15 30//15
f 40//47 29//47 11//47
f 54//48 31//48 28//48
f 28//48 12//48 54//48
f 38//49 47//49 27//49
f 26//50 50//50 25//50
f 36//20 25//20 47//20
f 1//21 2//21 47//21
f 38//51 8//51 47//51
f 39//47 10//47 28//47
f 33//24 34//24 44//24
f 31//25 33//25 42//25
f 35//26 32//26 46//26
f 28//27 31//27 39//27
f 32//28 30//28 43//28
f 30//29 29//29 41//29
f 37//52 26//52 36//52
f 50//53 7//53 49//53
f 55//15 18//15 53//15
f 58//14 20//14 55//14
f 12//13 16//13 54//13
f 16//12 22//12 56//12
f 27//54 24//54 51//54
f 25//33 49//33 24//33
f 7//34 50//34 22//34
f 50//55 26//55 57//55
f 26//36 37//36 34//36
f 6//56 21//56 37//56
f 58//38 51//38 20//38
f 35//57 27//57 58//57
f 46//40 38//40 35//40
f 8//58 38//58 23//58
f 5//3 7//3 20//3
f 2//59 1//59 8//59
f 8//59 6//59 2//59
f 17//42 19//42 21//42
f 13//42 10//42 15//42
f 10//42 11//42 9//42
f 15//42 17//42 13//42
f 6//60 8//60 23//60
f 23//60 21//60 6//60
f 13//42 11//42 10//42
f 21//42 23//42 17//42
